<svg width="438" height="438" viewBox="0 0 438 438" fill="none" xmlns="http://www.w3.org/2000/svg">
<g clip-path="url(#clip0_2124_130)">
<path d="M139.414 25.6919L130.734 34.3713V59.7665L118.173 47.2049L111.991 53.4115L130.734 72.1551V103.51L96.3137 69.0888L90.107 75.2707L130.734 115.873V123.044H130.685L122.154 131.65H115.156L74.4545 90.948L68.2478 97.1299L102.768 131.65H71.413L52.5705 112.807L46.3886 118.989L59.0492 131.65H33.4066L24.8262 140.354H139.241V140.255H139.414V25.6919Z" fill="black"/>
<path d="M409.86 140.354L401.28 131.65H375.637L388.298 118.989L382.116 112.807L363.273 131.65H331.919L366.438 97.1299L360.257 90.948L319.53 131.65H312.532L304.001 123.044H303.952V115.873L344.579 75.2707L338.373 69.0888L303.952 103.51V72.1551L322.695 53.4115L316.513 47.2049L303.952 59.7665V34.3713L295.272 25.6919V140.255H295.446V140.354H409.86Z" fill="black"/>
<path d="M139.241 292.231V292.132H24.8262L33.4066 300.836H59.0492L46.3886 313.496L52.5705 319.678L71.413 300.836H102.768L68.2478 335.356L74.4545 341.538L115.156 300.836H122.154L130.685 309.441H130.734V316.587L90.107 357.215L96.3137 363.397L130.734 328.976V360.331L111.991 379.074L118.173 385.256L130.734 372.694V398.09L139.414 406.794V292.231H139.241Z" fill="black"/>
<path d="M409.86 292.132H295.446V292.231H295.272V406.794L303.952 398.09V372.719L316.513 385.256L322.695 379.074L303.952 360.331V328.976L338.373 363.397L344.579 357.215L303.952 316.587V309.441H304.001L312.532 300.836H319.53L360.257 341.538L366.438 335.356L331.919 300.836H363.273L382.116 319.678L388.298 313.496L375.637 300.836H401.28L409.86 292.132Z" fill="black"/>
<path d="M266.365 292.132V330.831H168.963V292.132H160.457V406.522H168.963V367.872H266.365V406.522H274.872V292.132H266.365ZM266.365 339.312V345.098H168.963V339.312H266.365ZM168.963 359.366V353.58H266.365V359.366H168.963Z" fill="black"/>
<path d="M192.01 321.088H183.454L177.396 315.03V306.474L183.454 300.416H192.01L198.068 306.474V315.03L192.01 321.088ZM186.545 313.67H188.943L190.65 311.963V309.565L188.943 307.859H186.545L184.839 309.565V311.963L186.545 313.67Z" fill="black"/>
<path d="M221.708 321.088H213.152L207.094 315.03V306.474L213.152 300.416H221.708L227.766 306.474V315.03L221.708 321.088ZM216.218 313.67H218.617L220.323 311.963V309.565L218.617 307.859H216.218L214.512 309.565V311.963L216.218 313.67Z" fill="black"/>
<path d="M251.381 321.088H242.825L236.767 315.03V306.474L242.825 300.416H251.381L257.439 306.474V315.03L251.381 321.088ZM245.891 313.67H248.29L249.996 311.963V309.565L248.29 307.859H245.891L244.185 309.565V311.963L245.891 313.67Z" fill="black"/>
<path d="M192.01 398.188H183.454L177.396 392.13V383.574L183.454 377.516H192.01L198.068 383.574V392.13L192.01 398.188ZM186.545 390.77H188.943L190.65 389.064V386.665L188.943 384.959H186.545L184.839 386.665V389.064L186.545 390.77Z" fill="black"/>
<path d="M221.708 398.188H213.152L207.094 392.13V383.574L213.152 377.516H221.708L227.766 383.574V392.13L221.708 398.188ZM216.218 390.77H218.617L220.323 389.064V386.665L218.617 384.959H216.218L214.512 386.665V389.064L216.218 390.77Z" fill="black"/>
<path d="M251.381 398.188H242.825L236.767 392.13V383.574L242.825 377.516H251.381L257.439 383.574V392.13L251.381 398.188ZM245.891 390.77H248.29L249.996 389.064V386.665L248.29 384.959H245.891L244.185 386.665V389.064L245.891 390.77Z" fill="black"/>
<path d="M401.552 159.023V197.722H304.15V159.023H295.644V273.413H304.15V234.764H401.552V273.413H410.058V159.023H401.552ZM304.15 206.228H401.552V212.015H304.15V206.228ZM304.15 226.283V220.496H401.552V226.283H304.15Z" fill="black"/>
<path d="M327.468 188.004H318.912L312.854 181.946V173.39L318.912 167.332H327.468L333.526 173.39V181.946L327.468 188.004ZM321.978 180.586H324.377L326.083 178.88V176.481L324.377 174.775H321.978L320.272 176.481V178.88L321.978 180.586Z" fill="black"/>
<path d="M357.14 188.004H348.585L342.526 181.946V173.39L348.585 167.332H357.14L363.199 173.39V181.946L357.14 188.004ZM351.651 180.586H354.049L355.756 178.88V176.481L354.049 174.775H351.651L349.945 176.481V178.88L351.651 180.586Z" fill="black"/>
<path d="M386.814 188.004H378.258L372.2 181.946V173.39L378.258 167.332H386.814L392.872 173.39V181.946L386.814 188.004ZM381.325 180.586H383.723L385.429 178.88V176.481L383.723 174.775H381.325L379.618 176.481V178.88L381.325 180.586Z" fill="black"/>
<path d="M327.468 265.105H318.912L312.854 259.047V250.491L318.912 244.433H327.468L333.526 250.491V259.047L327.468 265.105ZM321.978 257.687H324.377L326.083 255.98V253.582L324.377 251.876H321.978L320.272 253.582V255.98L321.978 257.687Z" fill="black"/>
<path d="M357.14 265.105H348.585L342.526 259.047V250.491L348.585 244.433H357.14L363.199 250.491V259.047L357.14 265.105ZM351.651 257.687H354.049L355.756 255.98V253.582L354.049 251.876H351.651L349.945 253.582V255.98L351.651 257.687Z" fill="black"/>
<path d="M386.814 265.105H378.258L372.2 259.047V250.491L378.258 244.433H386.814L392.872 250.491V259.047L386.814 265.105ZM381.325 257.687H383.723L385.429 255.98V253.582L383.723 251.876H381.325L379.618 253.582V255.98L381.325 257.687Z" fill="black"/>
<path d="M266.019 25.9146V123.959L258.13 131.848L224.501 131.922C213.769 131.922 202.32 126.68 193.888 117.901C185.308 108.975 180.832 97.7235 181.302 86.2252C181.945 69.9791 193.493 52.9418 211.643 52.5709C219.531 52.3978 226.108 54.6975 230.708 59.1732C235.01 63.4016 237.483 69.5835 237.483 76.1858C237.483 84.8651 230.683 94.1875 219.308 94.8056C215.451 95.0035 211.89 92.9758 210.06 90.874C208.552 89.1183 206.227 85.5575 207.637 81.428C209.12 77.1007 212.78 76.1363 215.772 77.1007L218.418 69.0148C210.456 66.4184 202.37 70.5479 199.6 78.6585C197.573 84.6179 199.032 91.0718 203.606 96.4129C206.697 99.9737 212.533 103.658 219.729 103.287C234.441 102.496 245.94 90.602 245.94 76.1858C245.94 67.2096 242.626 59.0001 236.617 53.1149C230.361 46.9825 221.657 43.8668 211.42 44.0893C188.25 44.5839 173.587 65.726 172.771 85.9037C172.202 99.7264 177.519 113.178 187.731 123.786C197.894 134.37 211.272 140.428 224.476 140.428L274.475 140.329V25.9146H265.969H266.019Z" fill="black"/>
<path d="M178.656 34.3961L210.234 34.3219C229.249 34.3219 248.512 49.1832 248.512 77.5705C248.512 98.2675 233.082 107.54 217.775 107.54C210.852 107.54 204.546 104.894 200.466 100.32C196.46 95.7947 194.804 89.4892 195.718 82.0709C196.881 72.5508 204.348 65.355 213.127 65.355C215.921 65.355 219.729 65.8496 221.905 68.174C223.438 69.806 224.081 72.3035 223.883 75.617C223.735 77.7436 222.795 79.2767 221.089 80.1174C219.16 81.0818 216.811 80.884 215.674 80.1174L211 87.2142C214.833 89.7364 220.397 89.9343 224.872 87.7335C229.299 85.5328 232.043 81.3291 232.365 76.1857C232.736 70.4242 231.326 65.7754 228.112 62.363C224.749 58.7528 219.556 56.8487 213.127 56.8487C200.071 56.8487 188.968 67.2343 187.286 81.0323C185.753 93.5445 190.155 101.482 194.111 105.958C199.799 112.362 208.404 116.047 217.775 116.047C236.667 116.047 257.018 104.004 257.018 77.5705C257.018 62.4125 252.147 49.3316 242.899 39.7372C234.269 30.7611 222.672 25.8403 210.234 25.8403L160.234 25.9392V140.329H168.741V44.3366L178.681 34.3961H178.656Z" fill="black"/>
<path d="M130.809 158.949V256.994L122.921 264.882L89.2917 264.956C78.5599 264.956 67.111 259.714 58.6789 250.936C50.0984 242.009 45.6227 230.758 46.0925 219.26C46.7355 203.014 58.2833 185.976 76.4333 185.606C84.3214 185.457 90.899 187.732 95.4983 192.208C99.8009 196.436 102.274 202.618 102.274 209.22C102.274 217.9 95.4736 227.222 84.0989 227.84C80.2414 228.038 76.6806 226.01 74.8755 223.909C73.3671 222.153 71.0427 218.592 72.4522 214.463C73.9358 210.135 77.5955 209.171 80.5876 210.135L83.2334 202.049C75.2711 199.453 67.1852 203.583 64.4157 211.693C62.388 217.653 63.847 224.106 68.4216 229.448C71.4878 233.008 77.373 236.693 84.544 236.322C99.2569 235.531 110.755 223.637 110.755 209.22C110.755 200.244 107.442 192.035 101.433 186.15C95.1768 180.017 86.4727 176.901 76.2355 177.124C53.0657 177.619 38.4023 198.761 37.5863 218.938C37.0175 232.761 42.334 246.213 52.5465 256.821C62.7095 267.404 76.0871 273.463 89.2917 273.463L139.291 273.364V158.974H130.785L130.809 158.949Z" fill="black"/>
<path d="M43.4465 167.431L75.0236 167.357C94.0392 167.357 113.302 182.218 113.302 210.605C113.302 231.302 97.8719 240.575 82.5655 240.575C75.6418 240.575 69.3363 237.929 65.2562 233.355C61.2504 228.829 59.5936 222.524 60.5085 215.106C61.6707 205.585 69.1385 198.39 77.9168 198.39C80.711 198.39 84.519 198.884 86.6951 201.209C88.2282 202.841 88.8711 205.338 88.6733 208.652C88.5249 210.778 87.5852 212.311 85.879 213.152C83.9503 214.116 81.6012 213.919 80.4637 213.152L75.7902 220.249C79.623 222.771 85.1867 222.969 89.6624 220.768C94.0886 218.567 96.8086 214.364 97.1548 209.22C97.5257 203.459 96.1163 198.81 92.9017 195.398C89.5387 191.787 84.3459 189.883 77.9168 189.883C64.8606 189.883 53.7579 200.269 52.0764 214.067C50.5433 226.579 54.9448 234.517 58.9012 238.992C64.5886 245.397 73.2185 249.081 82.5655 249.081C101.457 249.081 121.808 237.039 121.808 210.605C121.808 195.447 116.937 182.366 107.689 172.772C99.0589 163.796 87.4616 158.875 75.0236 158.875L25.0244 158.974V273.364H33.5307V177.371L43.4712 167.431H43.4465Z" fill="black"/>
<path d="M309.713 438H128.287L0 309.713V128.287L128.287 0H309.713L438 128.287V309.713L309.713 438ZM131.526 430.211H306.499L430.236 306.474V131.526L306.499 7.78919H131.526L7.78919 131.526V306.499L131.526 430.236V430.211Z" fill="black"/>
<path d="M168.716 163.623H160.21V273.042H168.716V163.623Z" fill="black"/>
<path d="M274.624 163.623H266.118V273.042H274.624V163.623Z" fill="black"/>
<path d="M217.43 216.886L213.646 209.814C213.473 209.492 213.251 209.047 212.979 208.528C195.595 174.577 174.676 167.455 160.21 167.455V158.924C176.135 158.924 198.612 166.021 217.38 198.76C235.951 166.021 258.527 158.924 274.575 158.924V167.455C253.359 167.455 235.629 181.229 221.856 208.404C221.559 208.973 221.337 209.443 221.139 209.789L217.38 216.886H217.43Z" fill="black"/>
<path d="M217.43 245.693L213.646 238.621C213.473 238.3 213.251 237.855 212.979 237.336C195.595 203.385 174.676 196.263 160.21 196.263V187.732C176.135 187.732 198.612 194.829 217.38 227.568C235.951 194.829 258.527 187.732 274.575 187.732V196.263C253.359 196.263 235.629 210.036 221.856 237.212C221.559 237.781 221.337 238.25 221.139 238.597L217.38 245.693H217.43Z" fill="black"/>
<path d="M217.43 274.477L213.646 267.405C213.473 267.083 213.251 266.638 212.979 266.119C195.595 232.168 174.676 225.046 160.21 225.046V216.515C176.135 216.515 198.612 223.612 217.38 256.351C235.951 223.612 258.527 216.515 274.575 216.515V225.046C253.359 225.046 235.629 238.819 221.856 265.995C221.559 266.564 221.337 267.034 221.139 267.38L217.38 274.477H217.43Z" fill="black"/>
</g>
<defs>
<clipPath id="clip0_2124_130">
<rect width="438" height="438" fill="white"/>
</clipPath>
</defs>
</svg>
