<?xml version="1.0" encoding="UTF-8"?>
<svg id="Layer_2" data-name="Layer 2" xmlns="http://www.w3.org/2000/svg" viewBox="0 0 101.9 101.07">
  <defs>
    <style>
      .cls-1 {
        fill: #272626;
      }
    </style>
  </defs>
  <g id="Layer_2-2" data-name="Layer 2">
    <g>
      <polygon class="cls-1" points="2.86 100.69 0 100.69 0 47.11 47.11 0 101.64 0 101.64 2.86 48.29 2.86 2.86 48.29 2.86 100.69"/>
      <polygon class="cls-1" points="52.92 11.34 49.78 14.48 49.78 23.64 45.26 19.11 43.02 21.34 49.78 28.1 49.78 39.4 37.37 26.99 35.14 29.22 49.78 43.87 49.78 46.45 49.77 46.45 46.69 49.56 44.17 49.56 29.49 34.88 27.25 37.11 39.7 49.56 28.4 49.56 21.6 42.76 19.37 44.99 23.93 49.56 14.69 49.56 11.59 52.69 52.86 52.69 52.86 52.66 52.92 52.66 52.92 11.34"/>
      <path class="cls-1" d="M53.06,61.11v-1.68c-5.79,0-13.94,2.56-20.64,14.36-6.77-11.8-14.87-14.36-20.62-14.36v3.07s0,0,0,0v7.3s0,0,0,0v3.07s0,0,0,0v7.3s0,0,0,0v3.07s0,0,0,0v17.31h3.06v-17.01c4.86.96,10.84,4.5,15.96,14.5.1.19.18.34.24.46l1.36,2.55,1.35-2.55c.07-.13.15-.29.26-.5,4.29-8.46,9.65-13.31,15.95-14.48v17.03h3.06v-39.46h0ZM14.87,62.8c4.86.96,10.84,4.5,15.96,14.5.1.19.18.34.24.46l1.36,2.55,1.35-2.55c.07-.13.15-.29.26-.5,4.29-8.46,9.65-13.31,15.95-14.48v7.27c-5.4.86-11.99,4.27-17.57,14.11-5.64-9.82-12.19-13.24-17.55-14.11v-7.25ZM32.42,94.54c-5.64-9.82-12.19-13.24-17.55-14.11v-7.25c4.86.96,10.84,4.5,15.96,14.5.1.19.18.34.24.46l1.36,2.55,1.35-2.55c.07-.13.15-.29.26-.5,4.29-8.46,9.65-13.31,15.95-14.48v7.27c-5.4.86-11.99,4.27-17.57,14.11Z"/>
      <g>
        <path class="cls-1" d="M98.83,59.43v13.95h-35.13v-13.95h-3.06v41.25h3.06v-13.94h35.13v13.94h3.06v-41.25h-3.06ZM98.83,83.68h-35.13v-2.08h35.13v2.08ZM98.83,78.53h-35.13v-2.08h35.13v2.08Z"/>
        <g>
          <path class="cls-1" d="M72.87,70.28h-4.32l-2.16-3.74,2.16-3.74h4.32l2.16,3.74-2.16,3.74ZM70.03,67.73h1.37l.68-1.18-.68-1.18h-1.37l-.68,1.18.68,1.18Z"/>
          <path class="cls-1" d="M83.51,70.28h-4.31l-2.16-3.74,2.16-3.74h4.31l2.16,3.74-2.16,3.74ZM80.67,67.73h1.37l.68-1.18-.68-1.18h-1.37l-.68,1.18.68,1.18Z"/>
          <path class="cls-1" d="M94.15,70.28h-4.31l-2.16-3.74,2.16-3.74h4.31l2.16,3.74-2.16,3.74ZM91.31,67.73h1.37l.68-1.18-.68-1.18h-1.37l-.68,1.18.68,1.18Z"/>
          <path class="cls-1" d="M72.87,97.32h-4.32l-2.16-3.74,2.16-3.74h4.32l2.16,3.74-2.16,3.74ZM70.03,94.77h1.37l.68-1.18-.68-1.18h-1.37l-.68,1.18.68,1.18Z"/>
          <path class="cls-1" d="M83.51,97.32h-4.31l-2.16-3.74,2.16-3.74h4.31l2.16,3.74-2.16,3.74ZM80.67,94.77h1.37l.68-1.18-.68-1.18h-1.37l-.68,1.18.68,1.18Z"/>
          <path class="cls-1" d="M94.15,97.32h-4.31l-2.16-3.74,2.16-3.74h4.31l2.16,3.74-2.16,3.74ZM91.31,94.77h1.37l.68-1.18-.68-1.18h-1.37l-.68,1.18.68,1.18Z"/>
        </g>
      </g>
      <g>
        <path class="cls-1" d="M98.57,11.43v35.36l-2.84,2.84-12.13.03c-3.87,0-8-1.89-11.04-5.06-3.09-3.22-4.71-7.28-4.54-11.42.24-5.86,4.39-12,10.94-12.14,2.84-.06,5.22.77,6.87,2.38,1.55,1.52,2.45,3.76,2.45,6.13,0,3.13-2.45,6.5-6.55,6.72-1.39.07-2.68-.66-3.33-1.42-.54-.63-1.38-1.92-.87-3.41.53-1.56,1.86-1.91,2.93-1.56l.95-2.91c-2.87-.94-5.79.56-6.79,3.48-.73,2.15-.21,4.48,1.45,6.4,1.11,1.29,3.22,2.61,5.82,2.48,5.3-.28,9.46-4.58,9.46-9.78,0-3.24-1.2-6.2-3.37-8.32-2.26-2.21-5.4-3.34-9.08-3.26-8.35.17-13.65,7.8-13.94,15.08-.2,4.98,1.71,9.84,5.39,13.67,3.66,3.81,8.49,6,13.25,6l18.03-.04V11.43h-3.06Z"/>
        <path class="cls-1" d="M67.07,14.49l11.39-.03c6.86,0,13.81,5.36,13.81,15.59,0,7.47-5.57,10.81-11.09,10.81-2.5,0-4.77-.95-6.24-2.61-1.45-1.63-2.04-3.91-1.71-6.58.42-3.43,3.12-6.02,6.28-6.02,1.01,0,2.38.18,3.16,1.02.55.59.79,1.49.71,2.69-.05.77-.39,1.32-1.01,1.62-.7.35-1.54.27-1.95,0l-1.69,2.56c1.38.91,3.39.98,5,.18,1.6-.79,2.58-2.31,2.7-4.17.14-2.08-.38-3.75-1.53-4.98-1.22-1.3-3.08-1.99-5.4-1.99-4.71,0-8.72,3.75-9.32,8.72-.55,4.51,1.04,7.38,2.46,8.99,2.05,2.31,5.16,3.64,8.53,3.64,6.82,0,14.15-4.34,14.15-13.87,0-5.47-1.76-10.19-5.09-13.64-3.11-3.23-7.3-5.01-11.78-5.01l-18.03.04v41.25h3.06V18.07l3.59-3.59Z"/>
      </g>
    </g>
  </g>
</svg>