<svg width="23" height="23" viewBox="0 0 23 23" fill="none" xmlns="http://www.w3.org/2000/svg">
<g id="envelope 2" clip-path="url(#clip0_2050_1718)">
<g id="Group">
<path id="Vector" opacity="0.982" fill-rule="evenodd" clip-rule="evenodd" d="M22.9775 5.05353C22.9775 9.33607 22.9775 13.6187 22.9775 17.9012C22.6996 19.0703 21.9808 19.8265 20.8213 20.1697C17.7083 20.2218 14.5937 20.2443 11.4775 20.2371C8.36135 20.2443 5.24679 20.2218 2.13379 20.1697C0.974275 19.8265 0.255524 19.0703 -0.0224609 17.9012C-0.0224609 13.6187 -0.0224609 9.33607 -0.0224609 5.05353C0.255524 3.88446 0.974275 3.12827 2.13379 2.78498C5.24679 2.73293 8.36135 2.71047 11.4775 2.71759C14.6085 2.71055 17.738 2.73301 20.8662 2.78498C21.9978 3.14537 22.7016 3.90155 22.9775 5.05353ZM2.7627 4.02033C8.57262 4.01284 14.3825 4.02033 20.1924 4.04279C21.0069 4.12358 21.4935 4.56532 21.6523 5.36798C21.6823 9.45588 21.6823 13.5438 21.6523 17.6317C21.4796 18.3884 21.0079 18.8151 20.2373 18.9119C14.3975 18.9419 8.55762 18.9419 2.71777 18.9119C1.92802 18.811 1.45634 18.3693 1.30273 17.5867C1.27278 13.5138 1.27278 9.44092 1.30273 5.36798C1.46923 4.56487 1.95588 4.11565 2.7627 4.02033Z" fill="#272626"/>
</g>
<g id="Group_2">
<path id="Vector_2" opacity="0.957" fill-rule="evenodd" clip-rule="evenodd" d="M3.0772 5.14367C3.37441 5.09776 3.62897 5.18015 3.84087 5.39074C6.37797 7.68481 8.92356 9.96832 11.4776 12.2413C14.0433 9.98274 16.5888 7.69923 19.1143 5.39074C19.3993 5.12867 19.7137 5.08374 20.0577 5.25597C20.3501 5.53503 20.4024 5.85698 20.2149 6.22179C18.3341 7.93799 16.4399 9.63752 14.5323 11.3204C16.4265 13.1248 18.3207 14.9291 20.2149 16.7335C20.4569 17.1805 20.3596 17.5324 19.9229 17.7892C19.701 17.8359 19.4914 17.806 19.294 17.6993C17.3655 15.8852 15.4414 14.0659 13.5215 12.2413C12.975 12.728 12.4285 13.2146 11.8819 13.7013C11.5876 13.856 11.3031 13.841 11.0284 13.6564C10.5477 13.1906 10.0535 12.7414 9.54595 12.3087C9.51599 12.2787 9.48607 12.2787 9.45611 12.3087C7.53943 14.1056 5.62279 15.9025 3.70611 17.6993C3.12857 17.9272 2.7692 17.74 2.62798 17.1378C2.64988 16.9897 2.70229 16.855 2.78521 16.7335C4.68738 14.9586 6.5816 13.1767 8.46783 11.3878C6.57994 9.64215 4.67076 7.92016 2.74029 6.22179C2.50139 5.74333 2.61369 5.38396 3.0772 5.14367Z" fill="#272626"/>
</g>
</g>
<defs>
<clipPath id="clip0_2050_1718">
<rect width="23" height="23" fill="white"/>
</clipPath>
</defs>
</svg>
