<svg width="22" height="22" viewBox="0 0 22 22" fill="none" xmlns="http://www.w3.org/2000/svg">
<g id="facebook 2" clip-path="url(#clip0_2050_1712)">
<g id="Group">
<path id="Vector" opacity="0.997" fill-rule="evenodd" clip-rule="evenodd" d="M11.7949 -0.0214844C12.8978 -0.0214844 14.0006 -0.0214844 15.1035 -0.0214844C15.1035 1.12435 15.1035 2.27018 15.1035 3.41602C14.5431 3.40085 13.9845 3.42234 13.4277 3.48047C12.7865 3.68036 12.4356 4.1172 12.375 4.79102C12.3535 5.70758 12.3463 6.62423 12.3535 7.54102C13.7285 7.54102 15.1035 7.54102 16.4785 7.54102C16.0472 8.67595 15.6032 9.80749 15.1465 10.9355C14.216 10.9785 13.2849 10.9928 12.3535 10.9785C12.3535 14.6452 12.3535 18.3119 12.3535 21.9785C10.9785 21.9785 9.60352 21.9785 8.22852 21.9785C8.22852 18.3119 8.22852 14.6452 8.22852 10.9785C7.31186 10.9785 6.39517 10.9785 5.47852 10.9785C5.47852 9.83267 5.47852 8.68686 5.47852 7.54102C6.39517 7.54102 7.31186 7.54102 8.22852 7.54102C8.22134 6.2089 8.22852 4.87687 8.25 3.54492C8.63728 1.56065 9.81892 0.371849 11.7949 -0.0214844Z" fill="#272626"/>
</g>
</g>
<defs>
<clipPath id="clip0_2050_1712">
<rect width="22" height="22" fill="white"/>
</clipPath>
</defs>
</svg>
