<?xml version="1.0" encoding="UTF-8"?>
<svg id="Layer_2" data-name="Layer 2" xmlns="http://www.w3.org/2000/svg" viewBox="0 0 79.25 79.24">
  <defs>
    <style>
      .cls-1 {
        fill: #272626;
      }
    </style>
  </defs>
  <g id="instagram">
    <g>
      <path class="cls-1" d="M73.36,0v26.8H5.89V0H0v79.24h5.89v-26.77h67.47v26.77h5.89V0h-5.89ZM73.36,46.58H5.89v-4h67.47v4ZM73.36,36.69H5.89v-4h67.47v4Z"/>
      <g>
        <path class="cls-1" d="M23.48,20.84h-8.29l-4.14-7.18,4.14-7.18h8.29l4.14,7.18-4.14,7.18ZM18.03,15.93h2.62l1.31-2.27-1.31-2.27h-2.62l-1.31,2.27,1.31,2.27Z"/>
        <path class="cls-1" d="M43.93,20.84h-8.29l-4.14-7.18,4.14-7.18h8.29l4.14,7.18-4.14,7.18ZM38.47,15.93h2.62l1.31-2.27-1.31-2.27h-2.62l-1.31,2.27,1.31,2.27Z"/>
        <path class="cls-1" d="M64.37,20.84h-8.29l-4.14-7.18,4.14-7.18h8.29l4.14,7.18-4.14,7.18ZM58.92,15.93h2.62l1.31-2.27-1.31-2.27h-2.62l-1.31,2.27,1.31,2.27Z"/>
        <path class="cls-1" d="M23.48,72.79h-8.29l-4.14-7.18,4.14-7.18h8.29l4.14,7.18-4.14,7.18ZM18.03,67.88h2.62l1.31-2.27-1.31-2.27h-2.62l-1.31,2.27,1.31,2.27Z"/>
        <path class="cls-1" d="M43.93,72.79h-8.29l-4.14-7.18,4.14-7.18h8.29l4.14,7.18-4.14,7.18ZM38.47,67.88h2.62l1.31-2.27-1.31-2.27h-2.62l-1.31,2.27,1.31,2.27Z"/>
        <path class="cls-1" d="M64.37,72.79h-8.29l-4.14-7.18,4.14-7.18h8.29l4.14,7.18-4.14,7.18ZM58.92,67.88h2.62l1.31-2.27-1.31-2.27h-2.62l-1.31,2.27,1.31,2.27Z"/>
      </g>
    </g>
  </g>
</svg>