<?xml version="1.0" encoding="UTF-8"?>
<svg id="Layer_2" data-name="Layer 2" xmlns="http://www.w3.org/2000/svg" viewBox="0 0 79.26 80">
  <defs>
    <style>
      .cls-1 {
        fill: #272626;
      }
    </style>
  </defs>
  <g id="instagram">
    <path class="cls-1" d="M79.26,3.23V0c-11.13,0-26.78,4.91-39.65,27.58C26.61,4.91,11.04,0,0,0v5.91s.01,0,.02,0v14.03s-.01,0-.02,0v5.91s.01,0,.02,0v14.03s-.01,0-.02,0v5.91s.01,0,.02,0v33.25h5.89v-32.67c9.34,1.85,20.82,8.65,30.67,27.86.18.36.34.66.46.88l2.61,4.9,2.6-4.9c.13-.24.29-.57.49-.96,8.24-16.24,18.53-25.57,30.64-27.82v32.72h5.89V3.23h0ZM5.9,6.49c9.34,1.85,20.82,8.65,30.67,27.86.18.36.34.66.46.88l2.61,4.9,2.6-4.9c.13-.24.29-.57.49-.96,8.24-16.24,18.53-25.57,30.64-27.82v13.96c-10.37,1.66-23.03,8.2-33.76,27.11C28.79,28.65,16.19,22.09,5.9,20.42V6.49ZM39.62,67.45c-10.82-18.86-23.42-25.43-33.71-27.1v-13.93c9.34,1.85,20.82,8.65,30.67,27.86.18.36.34.66.46.88l2.61,4.9,2.6-4.9c.13-.24.29-.57.49-.96,8.24-16.24,18.53-25.57,30.64-27.82v13.96c-10.37,1.66-23.03,8.2-33.76,27.11Z"/>
  </g>
</svg>