<?xml version="1.0" encoding="UTF-8"?>
<svg id="Layer_2" data-name="Layer 2" xmlns="http://www.w3.org/2000/svg" viewBox="0 0 79.18 79.39">
  <defs>
    <style>
      .cls-1 {
        fill: #272626;
      }
    </style>
  </defs>
  <g id="instagram">
    <g>
      <path class="cls-1" d="M73.29.06v67.92l-5.46,5.46-23.3.05c-7.43,0-15.36-3.63-21.2-9.71-5.95-6.19-9.04-13.98-8.72-21.94.45-11.26,8.44-23.06,21.02-23.32,5.46-.12,10.03,1.47,13.21,4.58,2.99,2.92,4.7,7.22,4.7,11.78,0,6.01-4.71,12.48-12.59,12.9-2.67.14-5.14-1.26-6.4-2.72-1.05-1.21-2.65-3.68-1.67-6.55,1.03-3,3.57-3.67,5.63-2.99l1.83-5.59c-5.51-1.8-11.12,1.07-13.03,6.68-1.41,4.12-.4,8.61,2.78,12.3,2.13,2.48,6.19,5.02,11.17,4.76,10.18-.55,18.16-8.79,18.16-18.78,0-6.23-2.3-11.9-6.47-15.99-4.33-4.24-10.38-6.41-17.45-6.26-16.04.33-26.21,14.99-26.78,28.97-.39,9.57,3.29,18.9,10.36,26.25,7.03,7.32,16.31,11.52,25.45,11.52l34.64-.08V.06h-5.89Z"/>
      <path class="cls-1" d="M12.78,5.94l21.88-.05c13.18,0,26.53,10.29,26.53,29.95,0,14.34-10.7,20.76-21.3,20.76-4.8,0-9.17-1.83-11.98-5.01-2.78-3.14-3.92-7.51-3.29-12.65.8-6.6,5.99-11.57,12.06-11.57,1.94,0,4.57.34,6.08,1.95,1.06,1.13,1.51,2.86,1.36,5.16-.1,1.48-.75,2.53-1.94,3.12-1.34.67-2.96.53-3.75,0l-3.24,4.92c2.65,1.75,6.52,1.89,9.61.35,3.07-1.52,4.96-4.44,5.19-8.01.26-3.99-.73-7.21-2.94-9.57-2.34-2.49-5.92-3.81-10.37-3.81-9.04,0-16.74,7.2-17.9,16.75-1.05,8.66,1.99,14.17,4.73,17.26,3.94,4.44,9.91,6.99,16.39,6.99,13.09,0,27.19-8.34,27.19-26.65,0-10.5-3.38-19.57-9.78-26.21C51.3,3.42,43.26,0,34.64,0L0,.08v79.25h5.89V12.82l6.89-6.89Z"/>
    </g>
  </g>
</svg>