<svg width="23" height="23" viewBox="0 0 23 23" fill="none" xmlns="http://www.w3.org/2000/svg">
<g id="phone-call 2" clip-path="url(#clip0_2050_1698)">
<g id="Group">
<path id="Vector" opacity="0.958" fill-rule="evenodd" clip-rule="evenodd" d="M12.4659 -0.0224609C12.6456 -0.0224609 12.8253 -0.0224609 13.005 -0.0224609C17.7148 1.03459 20.8968 3.83472 22.5509 8.37793C22.7156 8.93209 22.8578 9.48615 22.9776 10.04C22.9776 10.1748 22.9776 10.3096 22.9776 10.4443C22.7324 10.9024 22.3731 11.0148 21.8995 10.7812C21.8471 10.7288 21.7947 10.6764 21.7423 10.624C21.0685 7.04851 19.1743 4.34572 16.0596 2.51562C14.8856 1.88468 13.6428 1.45044 12.3311 1.21289C11.8876 0.743848 11.9325 0.332063 12.4659 -0.0224609Z" fill="#272626"/>
</g>
<g id="Group_2">
<path id="Vector_2" opacity="0.959" fill-rule="evenodd" clip-rule="evenodd" d="M17.1377 22.9773C16.7184 22.9773 16.2991 22.9773 15.8799 22.9773C14.5855 22.7831 13.3427 22.4012 12.1514 21.8318C7.36449 19.4857 3.74826 15.9444 1.30273 11.2078C0.637814 9.87963 0.196081 8.48705 -0.0224609 7.03006C-0.0224609 6.64072 -0.0224609 6.25142 -0.0224609 5.86209C0.0652239 5.24765 0.282346 4.67862 0.628906 4.15506C1.40007 3.26411 2.23112 2.43305 3.12207 1.66189C4.10441 1.09738 5.03278 1.17225 5.90723 1.8865C7.01046 2.95975 8.08113 4.06033 9.11914 5.18826C9.69261 6.25547 9.55785 7.22875 8.71484 8.10818C8.21024 8.61279 7.70859 9.11443 7.20996 9.61306C7.79098 10.7676 8.53219 11.8083 9.43359 12.7351C10.5522 13.9522 11.8399 14.9405 13.2969 15.7C13.8715 15.1703 14.433 14.6237 14.9814 14.0603C16.0275 13.2398 17.0607 13.2548 18.0811 14.1053C19.002 15.0261 19.9229 15.947 20.8438 16.8679C21.7256 17.8321 21.8155 18.8653 21.1133 19.9676C20.3883 20.7374 19.6471 21.4936 18.8897 22.2361C18.3594 22.6197 17.7755 22.8668 17.1377 22.9773ZM4.33496 2.62771C4.54533 2.64742 4.73998 2.71481 4.91895 2.82986C5.91473 3.82563 6.91047 4.82138 7.90625 5.81716C8.22762 6.28004 8.1827 6.7143 7.77148 7.1199C7.1862 7.72019 6.58725 8.30417 5.97461 8.87185C5.78913 9.12786 5.72925 9.41235 5.79492 9.72537C6.087 10.4743 6.46134 11.1781 6.91797 11.8367C8.22066 13.6187 9.78547 15.1235 11.6123 16.3513C12.0615 16.5909 12.5107 16.8305 12.96 17.0701C13.3944 17.2155 13.7837 17.1406 14.1279 16.8455C14.7419 16.2315 15.3558 15.6176 15.9697 15.0037C16.3541 14.7257 16.7285 14.7407 17.0928 15.0486C18.1048 16.0457 19.1006 17.0564 20.0801 18.0808C20.2897 18.4102 20.2897 18.7397 20.0801 19.0691C19.3976 19.7965 18.7013 20.5077 17.9912 21.2029C17.3736 21.6019 16.6998 21.7367 15.9697 21.6072C15.116 21.4923 14.2924 21.2677 13.499 20.9334C8.32214 18.6315 4.5412 14.9105 2.15625 9.77029C1.68531 8.71759 1.4083 7.617 1.3252 6.46853C1.30747 5.88194 1.4647 5.35038 1.79688 4.87381C2.47819 4.19249 3.1595 3.51118 3.84082 2.82986C4.00043 2.73459 4.16514 2.66721 4.33496 2.62771Z" fill="#272626"/>
</g>
<g id="Group_3">
<path id="Vector_3" opacity="0.955" fill-rule="evenodd" clip-rule="evenodd" d="M12.4658 4.11035C15.4398 4.65373 17.4612 6.3383 18.5302 9.16406C18.7173 9.65007 18.7997 10.1517 18.7773 10.6689C18.5769 11.0498 18.2699 11.1771 17.8564 11.0508C17.7459 10.9853 17.6486 10.9029 17.5644 10.8037C17.1312 8.53556 15.8808 6.89591 13.8134 5.88477C13.3035 5.68617 12.7794 5.5364 12.2412 5.43555C11.7415 5.06701 11.7115 4.66271 12.1513 4.22266C12.2604 4.18212 12.3652 4.14469 12.4658 4.11035Z" fill="#272626"/>
</g>
</g>
<defs>
<clipPath id="clip0_2050_1698">
<rect width="23" height="23" fill="white"/>
</clipPath>
</defs>
</svg>
